<?xml version="1.0" encoding="UTF-8" standalone="no"?>
<!-- Generator: Adobe Illustrator 16.0.0, SVG Export Plug-In . SVG Version: 6.00 Build 0)  -->

<svg
   xmlns:dc="http://purl.org/dc/elements/1.1/"
   xmlns:cc="http://creativecommons.org/ns#"
   xmlns:rdf="http://www.w3.org/1999/02/22-rdf-syntax-ns#"
   xmlns:svg="http://www.w3.org/2000/svg"
   xmlns="http://www.w3.org/2000/svg"
   xmlns:sodipodi="http://sodipodi.sourceforge.net/DTD/sodipodi-0.dtd"
   xmlns:inkscape="http://www.inkscape.org/namespaces/inkscape"
   version="1.1"
   id="Layer_1"
   x="0px"
   y="0px"
   width="358.94"
   height="317.99399"
   viewBox="0 0 358.94 317.99399"
   enable-background="new 0 0 400 400"
   xml:space="preserve"
   inkscape:version="0.91 r13725"
   sodipodi:docname="table.svg"><metadata
     id="metadata276"><rdf:RDF><cc:Work
         rdf:about=""><dc:format>image/svg+xml</dc:format><dc:type
           rdf:resource="http://purl.org/dc/dcmitype/StillImage" /><dc:title></dc:title></cc:Work></rdf:RDF></metadata><defs
     id="defs274" /><sodipodi:namedview
     pagecolor="#ffffff"
     bordercolor="#666666"
     borderopacity="1"
     objecttolerance="10"
     gridtolerance="10"
     guidetolerance="10"
     inkscape:pageopacity="0"
     inkscape:pageshadow="2"
     inkscape:window-width="640"
     inkscape:window-height="480"
     id="namedview272"
     showgrid="false"
     fit-margin-top="0"
     fit-margin-left="0"
     fit-margin-right="0"
     fit-margin-bottom="0"
     inkscape:zoom="0.59"
     inkscape:cx="179.47"
     inkscape:cy="158.997"
     inkscape:window-x="0"
     inkscape:window-y="0"
     inkscape:window-maximized="0"
     inkscape:current-layer="Layer_1" /><g
     id="g242"
     style="fill:#ffffff"
     transform="translate(-20.53,-41.003)"><path
       d="m 268.215,184.472 111.255,0 0,-51.175 -111.255,0 0,51.175 z m 7,-44.175 97.255,0 0,37.175 -97.255,0 0,-37.175 z"
       id="path244"
       style="fill:#ffffff"
       inkscape:connector-curvature="0" /><path
       d="m 145.122,358.997 111.255,0 0,-51.175 -111.255,0 0,51.175 z m 7,-44.175 97.255,0 0,37.175 -97.255,0 0,-37.175 z"
       id="path246"
       style="fill:#ffffff"
       inkscape:connector-curvature="0" /><path
       d="m 22.029,242.647 111.255,0 0,-51.176 -111.255,0 0,51.176 z m 7,-44.175 97.255,0 0,37.176 -97.255,0 0,-37.176 z"
       id="path248"
       style="fill:#ffffff"
       inkscape:connector-curvature="0" /><path
       d="m 22.029,184.472 111.255,0 0,-51.175 -111.255,0 0,51.175 z m 7,-44.175 97.255,0 0,37.175 -97.255,0 0,-37.175 z"
       id="path250"
       style="fill:#ffffff"
       inkscape:connector-curvature="0" /><path
       d="m 22.029,300.822 111.255,0 0,-51.175 -111.255,0 0,51.175 z m 7,-44.175 97.255,0 0,37.175 -97.255,0 0,-37.175 z"
       id="path252"
       style="fill:#ffffff"
       inkscape:connector-curvature="0" /><path
       d="m 22.029,358.997 111.255,0 0,-51.175 -111.255,0 0,51.175 z m 7,-44.175 97.255,0 0,37.175 -97.255,0 0,-37.175 z"
       id="path254"
       style="fill:#ffffff"
       inkscape:connector-curvature="0" /><path
       d="m 268.215,358.997 111.255,0 0,-51.175 -111.255,0 0,51.175 z m 7,-44.175 97.255,0 0,37.175 -97.255,0 0,-37.175 z"
       id="path256"
       style="fill:#ffffff"
       inkscape:connector-curvature="0" /><path
       d="m 268.952,258.854 c 2.092,4.836 4.179,9.661 6.263,14.478 l 0,0 c 2.167,5.01 4.333,10.017 6.503,15.032 4.07,-1.852 7.986,-3.633 11.982,-5.451 -5.987,-13.253 -11.928,-26.399 -17.907,-39.635 2.649,-0.229 5.283,-0.457 7.91,-0.685 7.849,-0.679 15.638,-1.353 23.599,-2.042 -12.028,-11.226 -23.983,-22.385 -35.934,-33.538 -1.051,-0.981 -2.102,-1.962 -3.153,-2.943 l 0,0 c -3.944,-3.682 -7.891,-7.364 -11.838,-11.049 l 0,0 c -0.553,-0.516 -1.107,-1.033 -1.66,-1.549 l 0,0 c -4.194,-3.915 -8.389,-7.829 -12.592,-11.753 0,1.588 0,3.167 0,4.753 0,2.336 0,4.667 0,7 0,2.333 0,4.67 0,7 0,12.413 0,24.796 0,37.176 0,2.333 0,4.666 0,7 0,2.332 0,4.667 0,7 0,2.331 0,4.667 0,7 0,4.216 0,8.427 0,12.651 2.886,-2.743 5.744,-5.459 8.594,-8.168 1.888,-1.795 3.775,-3.588 5.658,-5.377 l 0,0 c 2.649,-2.519 5.299,-5.037 7.961,-7.566 1.543,3.567 3.08,7.12 4.614,10.666 z"
       id="path258"
       style="fill:#ffffff"
       inkscape:connector-curvature="0" /><polygon
       points="275.215,198.472 372.47,198.472 372.47,235.647 312.307,235.647 319.808,242.647 379.47,242.647 379.47,191.472 268.215,191.472 268.215,194.494 268.508,194.768 275.215,201.027 "
       id="polygon260"
       style="fill:#ffffff" /><polygon
       points="152.122,235.647 152.122,198.472 235.125,198.472 235.125,191.472 145.122,191.472 145.122,242.647 235.125,242.647 235.125,235.647 "
       id="polygon262"
       style="fill:#ffffff" /><polygon
       points="145.122,184.472 235.125,184.472 235.125,179.719 235.125,177.472 152.122,177.472 152.122,140.297 249.377,140.297 249.377,176.912 256.377,183.445 256.377,133.297 145.122,133.297 "
       id="polygon264"
       style="fill:#ffffff" /><polygon
       points="235.125,256.647 235.125,249.647 145.122,249.647 145.122,300.822 256.377,300.822 256.377,265.411 249.377,272.063 249.377,293.822 152.122,293.822 152.122,256.647 "
       id="polygon266"
       style="fill:#ffffff" /><polygon
       points="286.622,293.822 284.617,294.734 278.125,297.688 268.642,275.766 268.215,274.779 268.215,300.822 379.47,300.822 379.47,249.647 286.353,249.647 289.515,256.647 372.47,256.647 372.47,293.822 "
       id="polygon268"
       style="fill:#ffffff" /><path
       d="m 368.985,41.003 -337.751,0 c -11.387,0 -10.678,10.852 -10.678,10.852 0,0 -0.02,-0.019 -0.026,-0.024 l 0,68.461 358.94,0 0,-71.009 c -0.569,-3.209 -2.699,-8.28 -10.485,-8.28 z"
       id="path270"
       style="fill:#ffffff"
       inkscape:connector-curvature="0" /></g></svg>