<?xml version="1.0" encoding="UTF-8" standalone="no"?>
<svg
   xmlns:dc="http://purl.org/dc/elements/1.1/"
   xmlns:cc="http://creativecommons.org/ns#"
   xmlns:rdf="http://www.w3.org/1999/02/22-rdf-syntax-ns#"
   xmlns:svg="http://www.w3.org/2000/svg"
   xmlns="http://www.w3.org/2000/svg"
   xmlns:sodipodi="http://sodipodi.sourceforge.net/DTD/sodipodi-0.dtd"
   xmlns:inkscape="http://www.inkscape.org/namespaces/inkscape"
   version="1.1"
   x="0px"
   y="0px"
   viewBox="0 0 96.171875 96.173828"
   enable-background="new 0 0 100 100"
   xml:space="preserve"
   id="svg2"
   inkscape:version="0.91 r13725"
   sodipodi:docname="date.svg"
   width="96.171875"
   height="96.173828"><metadata
     id="metadata20"><rdf:RDF><cc:Work
         rdf:about=""><dc:format>image/svg+xml</dc:format><dc:type
           rdf:resource="http://purl.org/dc/dcmitype/StillImage" /><dc:title /></cc:Work></rdf:RDF></metadata><defs
     id="defs18" /><sodipodi:namedview
     pagecolor="#ffffff"
     bordercolor="#666666"
     borderopacity="1"
     objecttolerance="10"
     gridtolerance="10"
     guidetolerance="10"
     inkscape:pageopacity="0"
     inkscape:pageshadow="2"
     inkscape:window-width="1549"
     inkscape:window-height="1057"
     id="namedview16"
     showgrid="false"
     inkscape:zoom="2.8284271"
     inkscape:cx="21.345082"
     inkscape:cy="89.575402"
     inkscape:window-x="367"
     inkscape:window-y="31"
     inkscape:window-maximized="0"
     inkscape:current-layer="svg2"
     fit-margin-top="0"
     fit-margin-left="0"
     fit-margin-right="0"
     fit-margin-bottom="0" /><path
     style="fill:#000000;fill-opacity:1;stroke:none;stroke-width:5;stroke-linecap:round;stroke-linejoin:miter;stroke-miterlimit:5;stroke-dasharray:none;stroke-opacity:1"
     d="M 3.9609375 3.875 L 3.9609375 24.582031 L 92.210938 24.582031 L 92.210938 3.875 L 3.9609375 3.875 z M 38.841797 8.1015625 L 41.046875 8.1015625 L 41.046875 13.984375 C 41.046875 14.231875 41.031953 14.459922 41.001953 14.669922 C 40.979486 14.879922 40.936983 15.060937 40.876953 15.210938 C 40.779453 15.450937 40.645156 15.6725 40.472656 15.875 C 40.307656 16.07 40.111719 16.238359 39.886719 16.380859 C 39.661719 16.515859 39.410313 16.620313 39.132812 16.695312 C 38.862812 16.777812 38.579297 16.820312 38.279297 16.820312 C 37.371797 16.820312 36.6325 16.402813 36.0625 15.570312 L 37.501953 14.097656 C 37.539486 14.352656 37.622533 14.555078 37.75 14.705078 C 37.8775 14.855078 38.035156 14.929687 38.222656 14.929688 C 38.635156 14.929687 38.841797 14.603672 38.841797 13.951172 L 38.841797 8.1015625 z M 45.025391 8.1015625 L 47.433594 8.1015625 L 50.662109 16.583984 L 48.310547 16.583984 L 47.804688 15.109375 L 44.654297 15.109375 L 44.148438 16.583984 L 41.796875 16.583984 L 45.025391 8.1015625 z M 51.638672 8.1015625 L 53.84375 8.1015625 L 57.916016 13.287109 L 57.916016 8.1015625 L 60.109375 8.1015625 L 60.109375 16.583984 L 57.916016 16.583984 L 53.84375 11.396484 L 53.84375 16.583984 L 51.638672 16.583984 L 51.638672 8.1015625 z M 46.230469 10.609375 L 45.240234 13.433594 L 47.220703 13.433594 L 46.230469 10.609375 z "
     id="path4148" /><path
     d="M 10.365235,0 C 4.6492342,0 0,4.6501872 0,10.367187 L 0,85.80664 c 0,5.716 4.6492342,10.367188 10.365235,10.367188 l 75.441405,0 c 5.716,0 10.365235,-4.651188 10.365235,-10.367188 l 0,-75.439453 C 96.171875,4.6501872 91.52264,0 85.80664,0 Z m 0,5.40625 75.441405,0 c 2.735,0 4.958985,2.2239839 4.958985,4.958984 l 0,32.835937 0.002,0 0,16.804688 -0.002,0 0,25.800781 c 0,2.735 -2.223985,4.960938 -4.958985,4.960938 l -75.441405,0 c -2.7340008,0 -4.958985,-2.225938 -4.958985,-4.960938 l 0,-75.441406 c 0,-2.7350001 2.2249842,-4.958984 4.958985,-4.958984 z"
     id="path4"
     inkscape:connector-curvature="0"
     sodipodi:nodetypes="sssssssssccsccccsccssc" /><g
     id="g5960"
     transform="translate(21.760321,30.317642)"><text
       sodipodi:linespacing="125%"
       id="text4135"
       y="40.557617"
       x="5.1315346"
       style="font-style:normal;font-weight:normal;font-size:40px;line-height:125%;font-family:sans-serif;letter-spacing:0px;word-spacing:0px;fill:#000000;fill-opacity:1;stroke:none;stroke-width:1px;stroke-linecap:butt;stroke-linejoin:miter;stroke-opacity:1"
       xml:space="preserve"><tspan
         style="font-style:normal;font-variant:normal;font-weight:500;font-stretch:normal;font-size:35px;font-family:futura;-inkscape-font-specification:'futura Medium'"
         y="40.557617"
         x="5.1315346"
         id="tspan4137"
         sodipodi:role="line">12</tspan></text>
</g></svg>