<?xml version="1.0" encoding="UTF-8" standalone="no"?>
<svg
   xmlns:dc="http://purl.org/dc/elements/1.1/"
   xmlns:cc="http://creativecommons.org/ns#"
   xmlns:rdf="http://www.w3.org/1999/02/22-rdf-syntax-ns#"
   xmlns:svg="http://www.w3.org/2000/svg"
   xmlns="http://www.w3.org/2000/svg"
   xmlns:sodipodi="http://sodipodi.sourceforge.net/DTD/sodipodi-0.dtd"
   xmlns:inkscape="http://www.inkscape.org/namespaces/inkscape"
   version="1.1"
   x="0px"
   y="0px"
   viewBox="0 0 96.171875 96.173828"
   enable-background="new 0 0 100 100"
   xml:space="preserve"
   id="svg2"
   inkscape:version="0.91 r13725"
   sodipodi:docname="nest copy.svg"
   width="96.171875"
   height="96.173828"
   inkscape:export-filename="/Users/beckyconning/Downloads/Icons/nest copy.png"
   inkscape:export-xdpi="934.09003"
   inkscape:export-ydpi="934.09003"><metadata
     id="metadata20"><rdf:RDF><cc:Work
         rdf:about=""><dc:format>image/svg+xml</dc:format><dc:type
           rdf:resource="http://purl.org/dc/dcmitype/StillImage" /><dc:title /></cc:Work></rdf:RDF></metadata><defs
     id="defs18" /><sodipodi:namedview
     pagecolor="#ffffff"
     bordercolor="#666666"
     borderopacity="1"
     objecttolerance="10"
     gridtolerance="10"
     guidetolerance="10"
     inkscape:pageopacity="0"
     inkscape:pageshadow="2"
     inkscape:window-width="1324"
     inkscape:window-height="1046"
     id="namedview16"
     showgrid="false"
     inkscape:zoom="5.6568542"
     inkscape:cx="48.395662"
     inkscape:cy="23.743116"
     inkscape:window-x="367"
     inkscape:window-y="31"
     inkscape:window-maximized="0"
     inkscape:current-layer="svg2"
     fit-margin-top="0"
     fit-margin-left="0"
     fit-margin-right="0"
     fit-margin-bottom="0"
     showguides="false" /><path
     d="M 10.365235,0 C 4.6492342,0 0,4.6501872 0,10.367187 L 0,85.80664 c 0,5.716 4.6492342,10.367188 10.365235,10.367188 l 75.441405,0 c 5.716,0 10.365235,-4.651188 10.365235,-10.367188 l 0,-75.439453 C 96.171875,4.6501872 91.52264,0 85.80664,0 Z m 0,5.40625 75.441405,0 c 2.735,0 4.958985,2.2239839 4.958985,4.958984 l 0,32.835937 0.002,0 0,16.804688 -0.002,0 0,25.800781 c 0,2.735 -2.223985,4.960938 -4.958985,4.960938 l -75.441405,0 c -2.7340008,0 -4.958985,-2.225938 -4.958985,-4.960938 l 0,-75.441406 c 0,-2.7350001 2.2249842,-4.958984 4.958985,-4.958984 z"
     id="path4"
     inkscape:connector-curvature="0"
     sodipodi:nodetypes="sssssssssccsccccsccssc" /><g
     id="g4198"
     transform="translate(5.0000001e-7,-3.5858707)"><path
       sodipodi:nodetypes="csssc"
       inkscape:connector-curvature="0"
       id="path4161"
       d="m 68.210937,45.923828 c 7.921081,4 9.375,2.883622 8.375,9.375 -1.29285,8.39238 -5.453919,25.875 -28.875,25.875 -21.67108,0 -28.125,-17.383622 -28.125,-25.875 0,-8.491378 2.95392,-8.375 10.375,-10.125"
       style="fill:none;fill-opacity:0.30555558;stroke:#000000;stroke-width:5;stroke-linecap:round;stroke-linejoin:round;stroke-miterlimit:4;stroke-dasharray:none;stroke-opacity:1" /><path
       sodipodi:nodetypes="csssc"
       inkscape:connector-curvature="0"
       id="path4156"
       d="m 66.875,45.423828 c 3.973365,2.5 10.625,4.286797 9.625,8.5 -1.434836,6.045257 -13.151635,11.25 -29.375,11.25 -16.223365,0 -27.375,-5.036797 -27.375,-11.25 0,-6.213203 4.401635,-7.75 11.375,-9"
       style="fill:none;fill-opacity:0.30555558;stroke:#000000;stroke-width:5;stroke-linecap:round;stroke-linejoin:round;stroke-miterlimit:4;stroke-dasharray:none;stroke-opacity:1" /><path
       sodipodi:nodetypes="czc"
       style="fill:none;fill-rule:evenodd;stroke:#000000;stroke-width:5;stroke-linecap:round;stroke-linejoin:round;stroke-miterlimit:4;stroke-dasharray:none;stroke-opacity:1"
       d="m 60.06581,63.923828 c 15,-18.75 -0.458879,-42 -11.657905,-41.75 -11.199026,0.25 -25.907905,24.5 -11.657905,41.75"
       id="path4170"
       inkscape:connector-curvature="0" /></g><path
     style="fill:none;fill-rule:evenodd;stroke:#000000;stroke-width:5;stroke-linecap:round;stroke-linejoin:round;stroke-miterlimit:4;stroke-dasharray:none;stroke-opacity:1"
     d="m 28.75,59.173828 c 0,0 11.5,15.5 42.5,17.75"
     id="path4203"
     inkscape:connector-curvature="0"
     sodipodi:nodetypes="cc" /><path
     style="fill:none;fill-rule:evenodd;stroke:#000000;stroke-width:5;stroke-linecap:round;stroke-linejoin:round;stroke-miterlimit:4;stroke-dasharray:none;stroke-opacity:1"
     d="m 76.75,49.611328 c 0,0 1.690403,-5.501159 -1.573223,-12.512563"
     id="path4207"
     inkscape:connector-curvature="0"
     sodipodi:nodetypes="cc" /></svg>