<?xml version="1.0" encoding="UTF-8" standalone="no"?>
<svg
   xmlns:dc="http://purl.org/dc/elements/1.1/"
   xmlns:cc="http://creativecommons.org/ns#"
   xmlns:rdf="http://www.w3.org/1999/02/22-rdf-syntax-ns#"
   xmlns:svg="http://www.w3.org/2000/svg"
   xmlns="http://www.w3.org/2000/svg"
   xmlns:sodipodi="http://sodipodi.sourceforge.net/DTD/sodipodi-0.dtd"
   xmlns:inkscape="http://www.inkscape.org/namespaces/inkscape"
   version="1.1"
   x="0px"
   y="0px"
   viewBox="0 0 96.171875 96.173828"
   enable-background="new 0 0 100 100"
   xml:space="preserve"
   id="svg2"
   inkscape:version="0.91 r13725"
   sodipodi:docname="object-id.svg"
   width="96.171875"
   height="96.173828"><metadata
     id="metadata20"><rdf:RDF><cc:Work
         rdf:about=""><dc:format>image/svg+xml</dc:format><dc:type
           rdf:resource="http://purl.org/dc/dcmitype/StillImage" /><dc:title /></cc:Work></rdf:RDF></metadata><defs
     id="defs18"><inkscape:perspective
       sodipodi:type="inkscape:persp3d"
       inkscape:vp_x="0 : 48.086914 : 1"
       inkscape:vp_y="0 : 1000 : 0"
       inkscape:vp_z="96.171875 : 48.086914 : 1"
       inkscape:persp3d-origin="48.085938 : 32.057943 : 1"
       id="perspective4240" /></defs><sodipodi:namedview
     pagecolor="#ffffff"
     bordercolor="#666666"
     borderopacity="1"
     objecttolerance="10"
     gridtolerance="10"
     guidetolerance="10"
     inkscape:pageopacity="0"
     inkscape:pageshadow="2"
     inkscape:window-width="1324"
     inkscape:window-height="1046"
     id="namedview16"
     showgrid="false"
     inkscape:zoom="4"
     inkscape:cx="57.939863"
     inkscape:cy="26.031746"
     inkscape:window-x="242"
     inkscape:window-y="55"
     inkscape:window-maximized="0"
     inkscape:current-layer="svg2"
     fit-margin-top="0"
     fit-margin-left="0"
     fit-margin-right="0"
     fit-margin-bottom="0" /><path
     d="M 10.365235,0 C 4.6492342,0 0,4.6501872 0,10.367187 L 0,85.80664 c 0,5.716 4.6492342,10.367188 10.365235,10.367188 l 75.441405,0 c 5.716,0 10.365235,-4.651188 10.365235,-10.367188 l 0,-75.439453 C 96.171875,4.6501872 91.52264,0 85.80664,0 Z m 0,5.40625 75.441405,0 c 2.735,0 4.958985,2.2239839 4.958985,4.958984 l 0,32.835937 0.002,0 0,16.804688 -0.002,0 0,25.800781 c 0,2.735 -2.223985,4.960938 -4.958985,4.960938 l -75.441405,0 c -2.7340008,0 -4.958985,-2.225938 -4.958985,-4.960938 l 0,-75.441406 c 0,-2.7350001 2.2249842,-4.958984 4.958985,-4.958984 z"
     id="path4"
     inkscape:connector-curvature="0"
     sodipodi:nodetypes="sssssssssccsccccsccssc" /><g
     id="g4388"
     transform="matrix(0.63063872,0,0,0.63201164,16.554002,16.46849)"
     style="stroke:#000000;stroke-width:7.91985321;stroke-linecap:round;stroke-linejoin:round;stroke-miterlimit:4;stroke-dasharray:none;stroke-opacity:1"><polygon
       id="polygon4390"
       points="88.662,72.322 88.662,27.685 50.001,5.363 11.341,27.68 11.341,72.317 50.001,94.637 "
       stroke-miterlimit="10"
       style="fill:none;stroke:#000000;stroke-width:7.91985321;stroke-linecap:round;stroke-linejoin:round;stroke-miterlimit:4;stroke-dasharray:none;stroke-opacity:1" /><polyline
       id="polyline4392"
       points="11.338,27.685 50.001,50.002 88.662,27.685  "
       stroke-miterlimit="10"
       style="fill:none;stroke:#000000;stroke-width:7.91985321;stroke-linecap:round;stroke-linejoin:round;stroke-miterlimit:4;stroke-dasharray:none;stroke-opacity:1" /><line
       id="line4394"
       y2="50.001999"
       x2="50.000999"
       y1="94.637001"
       x1="50.000999"
       stroke-miterlimit="10"
       style="fill:none;stroke:#000000;stroke-width:7.91985321;stroke-linecap:round;stroke-linejoin:round;stroke-miterlimit:4;stroke-dasharray:none;stroke-opacity:1" /></g><g
     id="g4552"
     transform="translate(-40.65864,143.54268)" /><text
     xml:space="preserve"
     style="font-style:normal;font-weight:normal;font-size:15px;line-height:125%;font-family:sans-serif;letter-spacing:0px;word-spacing:0px;fill:#000000;fill-opacity:1;stroke:none;stroke-width:1px;stroke-linecap:butt;stroke-linejoin:miter;stroke-opacity:1"
     x="-27.25"
     y="60.423828"
     id="text4241"
     sodipodi:linespacing="125%"><tspan
       sodipodi:role="line"
       id="tspan4243"
       x="-27.25"
       y="60.423828"></tspan></text>
</svg>