<?xml version="1.0" encoding="UTF-8" standalone="no"?>
<svg
   xmlns:dc="http://purl.org/dc/elements/1.1/"
   xmlns:cc="http://creativecommons.org/ns#"
   xmlns:rdf="http://www.w3.org/1999/02/22-rdf-syntax-ns#"
   xmlns:svg="http://www.w3.org/2000/svg"
   xmlns="http://www.w3.org/2000/svg"
   xmlns:sodipodi="http://sodipodi.sourceforge.net/DTD/sodipodi-0.dtd"
   xmlns:inkscape="http://www.inkscape.org/namespaces/inkscape"
   version="1.1"
   x="0px"
   y="0px"
   viewBox="0 0 96.171875 96.173828"
   enable-background="new 0 0 100 100"
   xml:space="preserve"
   id="svg2"
   inkscape:version="0.91 r13725"
   sodipodi:docname="relabel.svg"
   width="96.171875"
   height="96.173828"><metadata
     id="metadata20"><rdf:RDF><cc:Work
         rdf:about=""><dc:format>image/svg+xml</dc:format><dc:type
           rdf:resource="http://purl.org/dc/dcmitype/StillImage" /><dc:title></dc:title></cc:Work></rdf:RDF></metadata><defs
     id="defs18" /><sodipodi:namedview
     pagecolor="#ffffff"
     bordercolor="#666666"
     borderopacity="1"
     objecttolerance="10"
     gridtolerance="10"
     guidetolerance="10"
     inkscape:pageopacity="0"
     inkscape:pageshadow="2"
     inkscape:window-width="1324"
     inkscape:window-height="1046"
     id="namedview16"
     showgrid="false"
     inkscape:zoom="4"
     inkscape:cx="40.742614"
     inkscape:cy="58.475165"
     inkscape:window-x="290"
     inkscape:window-y="66"
     inkscape:window-maximized="0"
     inkscape:current-layer="svg2"
     fit-margin-top="0"
     fit-margin-left="0"
     fit-margin-right="0"
     fit-margin-bottom="0"
     inkscape:showpageshadow="false" /><path
     d="M 10.365235,0 C 4.6492342,0 0,4.6501872 0,10.367187 L 0,85.80664 c 0,5.716 4.6492342,10.367188 10.365235,10.367188 l 75.441405,0 c 5.716,0 10.365235,-4.651188 10.365235,-10.367188 l 0,-75.439453 C 96.171875,4.6501872 91.52264,0 85.80664,0 Z m 0,5.40625 75.441405,0 c 2.735,0 4.958985,2.2239839 4.958985,4.958984 l 0,32.835937 0.002,0 0,16.804688 -0.002,0 0,25.800781 c 0,2.735 -2.223985,4.960938 -4.958985,4.960938 l -75.441405,0 c -2.7340008,0 -4.958985,-2.225938 -4.958985,-4.960938 l 0,-75.441406 c 0,-2.7350001 2.2249842,-4.958984 4.958985,-4.958984 z"
     id="path4"
     inkscape:connector-curvature="0"
     sodipodi:nodetypes="sssssssssccsccccsccssc" /><g
     id="g4216"
     transform="translate(1.7939888,0.70080321)"><g
       transform="matrix(0.69676011,0,0,0.69676011,12.248106,13.24856)"
       id="g4185"><g
         transform="translate(-4.151408,-2.2775599)"
         id="g4143"><g
           transform="matrix(0.70710678,0.70710678,-0.70710678,0.70710678,52.726536,-22.736998)"
           id="g4167"><path
             style="fill:none;fill-rule:evenodd;stroke:#000000;stroke-width:7.17607117;stroke-linecap:round;stroke-linejoin:round;stroke-miterlimit:4;stroke-dasharray:none;stroke-opacity:1"
             d="m 6.4611819,52.636866 14.9297901,22.988722 79.794348,-0.281751 0,-46.413304 -79.794348,0 -14.9297901,22.988726"
             id="path4137"
             inkscape:connector-curvature="0"
             sodipodi:nodetypes="cccccc" /><circle
             cy="52.035442"
             cx="33.497131"
             id="path4141"
             style="fill:none;fill-opacity:0.19444448;stroke:#000000;stroke-width:7.03254938;stroke-linecap:round;stroke-linejoin:round;stroke-miterlimit:4;stroke-dasharray:none;stroke-opacity:1"
             r="3.5519738" /><g
             id="g4161"
             transform="translate(5.7408568,2.9124497)"><path
               inkscape:connector-curvature="0"
               id="path4157"
               d="m 46.851746,42.388519 33.838279,0"
               style="fill:none;fill-rule:evenodd;stroke:#000000;stroke-width:7.17607117;stroke-linecap:round;stroke-linejoin:miter;stroke-miterlimit:4;stroke-dasharray:none;stroke-opacity:1"
               sodipodi:nodetypes="cc" /><path
               inkscape:connector-curvature="0"
               id="path4159"
               d="m 46.851746,56.342702 17.506156,0"
               style="fill:none;fill-rule:evenodd;stroke:#000000;stroke-width:7.17607117;stroke-linecap:round;stroke-linejoin:miter;stroke-miterlimit:4;stroke-dasharray:none;stroke-opacity:1" /></g></g><path
           sodipodi:nodetypes="cssc"
           inkscape:connector-curvature="0"
           id="path4174"
           d="m 53.835974,-1.9741031 c -10e-7,8.9677768 -10.677547,16.2375961 -23.848967,16.2375961 -13.17142,0 -23.8489658,-7.2698194 -23.8489665,-16.2375961 1e-7,-8.9677769 13.7220945,-13.1930479 26.8935155,-13.1930479"
           style="fill:none;fill-opacity:1;stroke:#000000;stroke-width:7.17607117;stroke-linecap:round;stroke-linejoin:round;stroke-miterlimit:4;stroke-dasharray:none;stroke-opacity:1"
           transform="matrix(0.70710678,0.70710678,-0.70710678,0.70710678,0,0)" /></g></g></g></svg>