<?xml version="1.0" encoding="UTF-8" standalone="no"?>
<svg
   xmlns:dc="http://purl.org/dc/elements/1.1/"
   xmlns:cc="http://creativecommons.org/ns#"
   xmlns:rdf="http://www.w3.org/1999/02/22-rdf-syntax-ns#"
   xmlns:svg="http://www.w3.org/2000/svg"
   xmlns="http://www.w3.org/2000/svg"
   xmlns:sodipodi="http://sodipodi.sourceforge.net/DTD/sodipodi-0.dtd"
   xmlns:inkscape="http://www.inkscape.org/namespaces/inkscape"
   version="1.1"
   x="0px"
   y="0px"
   viewBox="0 0 96.171875 96.173828"
   enable-background="new 0 0 100 100"
   xml:space="preserve"
   id="svg2"
   inkscape:version="0.91 r13725"
   sodipodi:docname="relabel.svg"
   width="96.171875"
   height="96.173828"><metadata
     id="metadata20"><rdf:RDF><cc:Work
         rdf:about=""><dc:format>image/svg+xml</dc:format><dc:type
           rdf:resource="http://purl.org/dc/dcmitype/StillImage" /><dc:title /></cc:Work></rdf:RDF></metadata><defs
     id="defs18" /><sodipodi:namedview
     pagecolor="#ffffff"
     bordercolor="#666666"
     borderopacity="1"
     objecttolerance="10"
     gridtolerance="10"
     guidetolerance="10"
     inkscape:pageopacity="0"
     inkscape:pageshadow="2"
     inkscape:window-width="1324"
     inkscape:window-height="1046"
     id="namedview16"
     showgrid="false"
     inkscape:zoom="4"
     inkscape:cx="21.21875"
     inkscape:cy="59.901257"
     inkscape:window-x="367"
     inkscape:window-y="31"
     inkscape:window-maximized="0"
     inkscape:current-layer="g4185"
     fit-margin-top="0"
     fit-margin-left="0"
     fit-margin-right="0"
     fit-margin-bottom="0" /><path
     d="M 10.365235,0 C 4.6492342,0 0,4.6501872 0,10.367187 L 0,85.80664 c 0,5.716 4.6492342,10.367188 10.365235,10.367188 l 75.441405,0 c 5.716,0 10.365235,-4.651188 10.365235,-10.367188 l 0,-75.439453 C 96.171875,4.6501872 91.52264,0 85.80664,0 Z m 0,5.40625 75.441405,0 c 2.735,0 4.958985,2.2239839 4.958985,4.958984 l 0,32.835937 0.002,0 0,16.804688 -0.002,0 0,25.800781 c 0,2.735 -2.223985,4.960938 -4.958985,4.960938 l -75.441405,0 c -2.7340008,0 -4.958985,-2.225938 -4.958985,-4.960938 l 0,-75.441406 c 0,-2.7350001 2.2249842,-4.958984 4.958985,-4.958984 z"
     id="path4"
     inkscape:connector-curvature="0"
     sodipodi:nodetypes="sssssssssccsccccsccssc" /><g
     id="g4185"
     transform="matrix(0.69676011,0,0,0.69676011,12.248106,13.24856)"><path
       id="path4187"
       d="m 91.249,25.106 -70.543,0 c -1.343,0 -2.582,0.723 -3.243,1.893 L 5.508,48.169 c -0.642,1.136 -0.642,2.526 0,3.662 l 11.955,21.171 c 0.66,1.17 1.899,1.893 3.243,1.893 l 70.543,0 c 2.057,0 3.724,-1.667 3.724,-3.724 l 0,-42.342 c 0,-2.056 -1.667,-3.723 -3.724,-3.723 z m -51.63,11.129 30.752,0 0,5.272 -30.752,0 z M 22.047,56.15 c -3.397,0 -6.15,-2.754 -6.15,-6.15 0,-3.397 2.754,-6.15 6.15,-6.15 3.396,0 6.15,2.754 6.15,6.15 0,3.397 -2.753,6.15 -6.15,6.15 z m 35.145,7.615 -17.573,0 0,-5.272 17.573,0 z m 19.915,-11.129 -37.488,0 0,-5.272 37.488,0 z"
       inkscape:connector-curvature="0"
       sodipodi:nodetypes="ssccccssssscccccssssscccccccccc" /></g></svg>